<?xml version="1.0" encoding="utf-8"?>
<!-- Generator: Adobe Illustrator 27.8.0, SVG Export Plug-In . SVG Version: 6.00 Build 0)  -->
<svg version="1.1" id="Calque_1" xmlns="http://www.w3.org/2000/svg" xmlns:xlink="http://www.w3.org/1999/xlink" x="0px" y="0px"
	 viewBox="0 0 300.2 274.5" style="enable-background:new 0 0 300.2 274.5;" xml:space="preserve">
<style type="text/css">
	.st0{fill:#1D1D1B;}
	.st1{fill:none;stroke:#000000;stroke-width:3.5911;stroke-linejoin:bevel;stroke-miterlimit:10;}
	.st2{fill:none;stroke:#000000;stroke-width:3.5911;stroke-miterlimit:10;}
</style>
<g>
	<path class="st0" d="M98.1,216.6h-4.4l-0.9,2.6h-2.4l4.1-10.9h2.8l4.1,10.9H99L98.1,216.6z M97.3,214.4l-1.4-4l-1.4,4H97.3z"/>
	<path class="st0" d="M118.8,210.3h-3.2v8.8h-2.2v-8.8h-3.1v-2.1h8.5V210.3z"/>
	<path class="st0" d="M132,210.3v2.2h4.7v2.1H132v2.4h5.1v2.1h-7.3v-10.9h7.3v2.1H132z"/>
	<path class="st0" d="M155.1,217v2.1h-6.9v-10.9h2.2v8.8H155.1z"/>
	<path class="st0" d="M166.1,208.2h2.2v10.9h-2.2V208.2z"/>
	<path class="st0" d="M182.3,210.3v2.2h4.7v2.1h-4.7v2.4h5.1v2.1h-7.3v-10.9h7.3v2.1H182.3z"/>
	<path class="st0" d="M202.1,215.2h-1.2v3.9h-2.2v-10.9h4.7c2.3,0,3.7,1.4,3.7,3.6c0,1.8-0.9,2.9-2.4,3.3l3.1,4.1h-2.7L202.1,215.2z
		 M200.9,213.2h2.2c1.2,0,1.7-0.6,1.7-1.5c0-0.9-0.6-1.5-1.7-1.5h-2.2V213.2z"/>
	<path class="st0" d="M23.2,232.3v23.2h-2.8v-19.6l-7.9,11.9h-0.3l-7.9-11.9v19.6H1.8v-23.2h3.4l7.4,11.1l7.4-11.1H23.2z"/>
	<path class="st0" d="M47,248.6H36.3l-2.8,7h-2.9l9.3-23.2h3.5l9.3,23.2h-2.9L47,248.6z M46,245.9l-4.3-11l-4.3,11H46z"/>
	<path class="st0" d="M67.3,246.5h-4.5v9h-2.8v-23.2h9.2c5.1,0,7.9,3,7.9,7.2c0,3.8-2.3,6.5-6.5,7l7.4,9h-3.4L67.3,246.5z
		 M62.8,244.1H69c3.7,0,5.3-2,5.3-4.6c0-2.6-1.7-4.5-5.3-4.5h-6.2V244.1z"/>
	<path class="st0" d="M85.1,232.3h2.8v23.2h-2.8V232.3z"/>
	<path class="st0" d="M99.7,234.9v7.4h11.2v2.6H99.7v8h12v2.6H97v-23.2h14.7v2.6H99.7z"/>
	<path class="st0" d="M151.4,232.3v23.2H148L134.9,236l0.3,9.8v9.7h-2.8v-23.2h3.4l13.1,19.5l-0.2-9.8v-9.7H151.4z"/>
	<path class="st0" d="M160.4,232.3h2.8v23.2h-2.8V232.3z"/>
	<path class="st0" d="M171.4,243.9c0-6.9,5.1-12,11.9-12c5.2,0,9.4,3.1,11,7.8h-2.9c-1.4-3.1-4.4-5.1-8.1-5.1c-5.2,0-9.1,4-9.1,9.3
		c0,5.3,3.9,9.3,9.1,9.3c3.7,0,6.7-2,8.1-5.1h2.9c-1.6,4.7-5.8,7.8-11,7.8C176.5,255.9,171.4,250.8,171.4,243.9z"/>
	<path class="st0" d="M224.9,243.9c0,6.8-5.2,12-12,12c-6.7,0-12-5.1-12-12c0-6.8,5.2-12,12-12C219.7,232,224.9,237.1,224.9,243.9z
		 M203.8,243.9c0,5.3,4,9.3,9.2,9.3c5.2,0,9.2-4,9.2-9.3c0-5.4-4-9.3-9.2-9.3C207.8,234.6,203.8,238.6,203.8,243.9z"/>
	<path class="st0" d="M247,252.9v2.6h-13.9v-23.2h2.8v20.6H247z"/>
	<path class="st0" d="M269,248.6h-10.8l-2.8,7h-2.9l9.3-23.2h3.5l9.3,23.2h-2.9L269,248.6z M267.9,245.9l-4.3-11l-4.3,11H267.9z"/>
	<path class="st0" d="M297.6,249.1c0,4.7-4.1,6.8-8.5,6.8c-6.2,0-9.1-3.2-9.8-7.3h2.8c0.8,3.1,2.9,4.7,7,4.7c3.6,0,5.8-1.5,5.8-4.1
		c0-2.6-2.2-3.1-6.7-4.1c-4.9-1.1-8.3-2.3-8.3-6.4c0-4.3,3.8-6.7,8.3-6.7c5.4,0,8.2,2.7,9,6.2h-2.8c-0.9-2.2-2.8-3.6-6.2-3.6
		c-3.4,0-5.6,1.6-5.6,4.1c0,1.9,1.5,2.7,6.1,3.7C294.3,243.6,297.6,244.7,297.6,249.1z"/>
</g>
<g>
	<g>
		<path class="st1" d="M192.3,57.3c13.9,19.3,12.8,46.1-3.5,64.1"/>
		<path class="st2" d="M118,126.3c-1.1-0.9-2.2-1.9-3.2-2.9c-18-18-19.8-46-5.3-66l20.2,36.4l20.2-36l2.1,0l37,63.6l0.9-1"/>
		<polyline class="st2" points="149.8,57.8 129.6,93.7 109.4,57.3 108.6,58.4 		"/>
	</g>
	<path class="st2" d="M150.9,166.6V57.1"/>
	<circle class="st2" cx="150.7" cy="96.4" r="86.8"/>
</g>
</svg>
