<?xml version="1.0" encoding="utf-8"?>
<!-- Generator: Adobe Illustrator 27.8.0, SVG Export Plug-In . SVG Version: 6.00 Build 0)  -->
<svg version="1.1" id="Calque_1" xmlns="http://www.w3.org/2000/svg" xmlns:xlink="http://www.w3.org/1999/xlink" x="0px" y="0px"
	 viewBox="0 0 300.2 274.5" style="enable-background:new 0 0 300.2 274.5;" xml:space="preserve">
<style type="text/css">
	.st0{fill:#1D1D1B;}
</style>
<g>
	<path class="st0" d="M192.8,57.2l-42.3,42.3l-42.3-42.3l-3.4,1.4v85.7h3.2V61.5l84.8,84.8l3.4-1.4V58.7L192.8,57.2z M193.1,142
		l-40.2-40.2l40.2-40.2V142z"/>
</g>
<g>
	<path class="st0" d="M100.2,230.3h-4.2l-0.9,2.5h-2.3l3.9-10.5h2.7l3.9,10.5H101L100.2,230.3z M99.4,228.2l-1.4-3.8l-1.4,3.8H99.4z
		"/>
	<path class="st0" d="M120,224.3h-3v8.5h-2.1v-8.5h-3v-2h8.2V224.3z"/>
	<path class="st0" d="M132.7,224.3v2.1h4.5v2h-4.5v2.3h4.9v2h-7v-10.5h7v2H132.7z"/>
	<path class="st0" d="M154.9,230.7v2h-6.6v-10.5h2.1v8.5H154.9z"/>
	<path class="st0" d="M165.5,222.3h2.1v10.5h-2.1V222.3z"/>
	<path class="st0" d="M181,224.3v2.1h4.5v2H181v2.3h4.9v2h-7v-10.5h7v2H181z"/>
	<path class="st0" d="M200,229h-1.2v3.8h-2.1v-10.5h4.5c2.2,0,3.6,1.3,3.6,3.4c0,1.7-0.9,2.8-2.4,3.1l2.9,3.9h-2.6L200,229z
		 M198.9,227.1h2.1c1.1,0,1.6-0.5,1.6-1.4c0-0.9-0.5-1.4-1.6-1.4h-2.1V227.1z"/>
	<path class="st0" d="M28.2,245.4v22.3h-2.6v-18.9L18,260.2h-0.3l-7.5-11.4v18.9H7.6v-22.3h3.2l7.1,10.6l7.1-10.6H28.2z"/>
	<path class="st0" d="M51.1,261H40.7l-2.6,6.7h-2.8l8.9-22.3h3.4l8.9,22.3h-2.8L51.1,261z M50.1,258.5l-4.2-10.6l-4.2,10.6H50.1z"/>
	<path class="st0" d="M70.6,259.1h-4.3v8.6h-2.6v-22.3h8.8c4.9,0,7.5,2.9,7.5,6.9c0,3.7-2.2,6.2-6.3,6.7l7.1,8.7h-3.3L70.6,259.1z
		 M66.2,256.7h5.9c3.5,0,5.1-1.9,5.1-4.4c0-2.5-1.6-4.4-5.1-4.4h-5.9V256.7z"/>
	<path class="st0" d="M87.6,245.4h2.6v22.3h-2.6V245.4z"/>
	<path class="st0" d="M101.7,247.9v7.1h10.7v2.5h-10.7v7.7h11.5v2.5H99v-22.3h14.1v2.5H101.7z"/>
	<path class="st0" d="M151.4,245.4v22.3h-3.3l-12.6-18.7l0.3,9.4v9.3h-2.6v-22.3h3.2l12.6,18.7l-0.2-9.4v-9.3H151.4z"/>
	<path class="st0" d="M160,245.4h2.6v22.3H160V245.4z"/>
	<path class="st0" d="M170.5,256.6c0-6.6,4.9-11.5,11.5-11.5c5,0,9,3,10.6,7.4h-2.8c-1.3-3-4.2-4.9-7.8-4.9c-5,0-8.8,3.9-8.8,9
		c0,5.1,3.7,9,8.8,9c3.6,0,6.4-1.9,7.8-4.9h2.8c-1.5,4.5-5.5,7.4-10.6,7.4C175.4,268,170.5,263.1,170.5,256.6z"/>
	<path class="st0" d="M221.9,256.6c0,6.6-5,11.5-11.5,11.5c-6.5,0-11.5-4.9-11.5-11.5s5-11.5,11.5-11.5
		C216.9,245.1,221.9,250,221.9,256.6z M201.6,256.6c0,5.1,3.9,9,8.8,9c5,0,8.8-3.8,8.8-9s-3.9-9-8.8-9
		C205.5,247.6,201.6,251.4,201.6,256.6z"/>
	<path class="st0" d="M243.1,265.2v2.5h-13.4v-22.3h2.6v19.8H243.1z"/>
	<path class="st0" d="M264.3,261h-10.3l-2.6,6.7h-2.8l8.9-22.3h3.4l8.9,22.3h-2.8L264.3,261z M263.3,258.5l-4.2-10.6l-4.2,10.6
		H263.3z"/>
	<path class="st0" d="M291.8,261.5c0,4.6-3.9,6.6-8.1,6.6c-5.9,0-8.8-3.1-9.5-7h2.7c0.7,3,2.8,4.6,6.7,4.6c3.4,0,5.5-1.4,5.5-4
		c0-2.5-2.1-3-6.4-3.9c-4.7-1.1-7.9-2.2-7.9-6.1c0-4.2,3.7-6.5,8-6.5c5.2,0,7.9,2.6,8.7,5.9h-2.7c-0.8-2.1-2.7-3.4-6-3.4
		c-3.3,0-5.4,1.5-5.4,4c0,1.8,1.4,2.5,5.9,3.6C288.6,256.3,291.8,257.3,291.8,261.5z"/>
</g>
<g>
	<path class="st0" d="M150.5,196.6c-52.3,0-94.8-42.5-94.8-94.8S98.3,7,150.5,7s94.8,42.5,94.8,94.8S202.8,196.6,150.5,196.6z
		 M150.5,9.6c-50.8,0-92.2,41.4-92.2,92.2c0,50.8,41.4,92.2,92.2,92.2s92.2-41.4,92.2-92.2C242.7,50.9,201.4,9.6,150.5,9.6z"/>
</g>
</svg>
