<?xml version="1.0" encoding="utf-8"?>
<!-- Generator: Adobe Illustrator 27.8.0, SVG Export Plug-In . SVG Version: 6.00 Build 0)  -->
<svg version="1.1" id="Calque_1" xmlns="http://www.w3.org/2000/svg" xmlns:xlink="http://www.w3.org/1999/xlink" x="0px" y="0px"
	 viewBox="0 0 311.5 77.9" style="enable-background:new 0 0 311.5 77.9;" xml:space="preserve">
<style type="text/css">
	.st0{fill:#1D1D1B;}
</style>
<g>
	<path class="st0" d="M215.2,46.3L173.9,5.1v40.2h-3.1V1.3l2.6-1.1l20.9,20.9l20.9-20.9l2.6,1.1v43.9L215.2,46.3z M196.5,23.3
		l18.2,18.2V5.1L196.5,23.3z"/>
</g>
<g>
	<g>
		<path class="st0" d="M13.8,47.4H5.4l-1.9,5.2H0.2l7.4-19.2h3.9L19,52.6h-3.3L13.8,47.4z M12.6,44.5l-3-8l-3,8H12.6z"/>
		<path class="st0" d="M32.9,36.3H27v16.2h-3.1V36.3h-5.8v-3h14.8V36.3z"/>
		<path class="st0" d="M39.1,36.3v5h8.7v3h-8.7v5.3h9.4v3H36V33.4h12.5v3H39.1z"/>
		<path class="st0" d="M63.7,49.6v3H51.9V33.4H55v16.2H63.7z"/>
		<path class="st0" d="M66.8,33.4h3.1v19.2h-3.1V33.4z"/>
		<path class="st0" d="M77.5,36.3v5h8.7v3h-8.7v5.3h9.4v3H74.4V33.4h12.5v3H77.5z"/>
		<path class="st0" d="M96.5,45.4h-3v7.2h-3.1V33.4h7.9c4.2,0,6.5,2.5,6.5,6.1c0,3.2-1.8,5.2-4.8,5.8l5.7,7.3H102L96.5,45.4z
			 M93.5,42.7H98c2.5,0,3.7-1.3,3.7-3.2s-1.2-3.2-3.7-3.2h-4.5V42.7z"/>
		<path class="st0" d="M19.8,58.2v19.2h-3.1v-15l-5.9,8.9h-0.3l-5.9-8.9v15H1.5V58.2h3.6l5.5,8.3l5.5-8.3H19.8z"/>
		<path class="st0" d="M36.4,72.2h-8.3l-1.9,5.2h-3.3l7.4-19.2h3.9l7.4,19.2h-3.3L36.4,72.2z M35.3,69.3l-3-8l-3,8H35.3z"/>
		<path class="st0" d="M50.8,70.2h-3v7.2h-3.1V58.2h7.9c4.2,0,6.5,2.5,6.5,6.1c0,3.2-1.8,5.2-4.8,5.8l5.7,7.3h-3.8L50.8,70.2z
			 M47.9,67.5h4.5c2.5,0,3.7-1.3,3.7-3.2s-1.2-3.2-3.7-3.2h-4.5V67.5z"/>
		<path class="st0" d="M62.9,58.2H66v19.2h-3.1V58.2z"/>
		<path class="st0" d="M73.6,61.1v5h8.7v3h-8.7v5.3H83v3H70.5V58.2H83v3H73.6z"/>
		<path class="st0" d="M106.4,58.2v19.2h-3.7l-9.6-14.8l0.3,6.8v8h-3.1V58.2H94l9.6,14.8l-0.3-6.8v-8H106.4z"/>
		<path class="st0" d="M110.8,58.2h3.1v19.2h-3.1V58.2z"/>
		<path class="st0" d="M117.6,67.8c0-5.7,4.2-9.9,9.9-9.9c4.4,0,8,2.7,9.2,6.7h-3.3c-1-2.2-3.2-3.7-5.9-3.7c-3.9,0-6.7,3-6.7,7
			s2.8,7,6.7,7c2.7,0,4.9-1.5,5.9-3.7h3.3c-1.2,4-4.7,6.7-9.2,6.7C121.8,77.7,117.6,73.4,117.6,67.8z"/>
		<path class="st0" d="M159.1,67.8c0,5.6-4.3,9.9-9.9,9.9s-9.9-4.3-9.9-9.9s4.3-9.9,9.9-9.9S159.1,62.1,159.1,67.8z M142.4,67.8
			c0,4,2.9,7,6.8,7c3.9,0,6.8-3,6.8-7s-2.9-7-6.8-7C145.3,60.8,142.4,63.8,142.4,67.8z"/>
		<path class="st0" d="M174.6,74.4v3h-11.8V58.2h3.1v16.2H174.6z"/>
		<path class="st0" d="M189.9,72.2h-8.3l-1.9,5.2h-3.3l7.4-19.2h3.9l7.4,19.2h-3.3L189.9,72.2z M188.7,69.3l-3-8l-3,8H188.7z"/>
		<path class="st0" d="M211.3,71.8c0,4.2-3.7,5.8-7.2,5.8c-5.4,0-7.7-3-8.2-6.3h3.1c0.6,2.2,2.1,3.4,5.1,3.4c2.6,0,4.1-1,4.1-2.8
			s-1.6-2.1-5.1-2.9c-3.7-0.8-6.6-1.9-6.6-5.5c0-3.8,3.4-5.8,7-5.8c4.8,0,7,2.5,7.6,5.5h-3.1c-0.5-1.6-1.9-2.6-4.4-2.6
			c-2.6,0-4,1.2-4,2.8c0,1.4,1.1,1.8,4.3,2.5C208.6,67.1,211.3,68.1,211.3,71.8z"/>
	</g>
</g>
</svg>
